<svg width="111" height="111" viewBox="0 0 111 111" fill="none" xmlns="http://www.w3.org/2000/svg">
<path d="M74 23.4571C68.3753 20.2096 61.9949 18.5 55.5 18.5C49.0051 18.5 42.6247 20.2096 37 23.4571C31.3753 26.7045 26.7045 31.3753 23.4571 37C20.2096 42.6247 18.5 49.0051 18.5 55.5C18.5 61.9949 20.2096 68.3753 23.4571 74C26.7045 79.6247 31.3753 84.2955 37 87.5429C42.6247 90.7904 49.0051 92.5 55.5 92.5C61.9948 92.5 68.3753 90.7904 74 87.5429" stroke="#222222" stroke-width="4.625"/>
<path d="M101.75 55.5L103.556 56.9446L104.711 55.5L103.556 54.0554L101.75 55.5ZM60.125 53.1875C58.8478 53.1875 57.8125 54.2228 57.8125 55.5C57.8125 56.7772 58.8478 57.8125 60.125 57.8125L60.125 53.1875ZM83.25 78.625L85.0558 80.0696L103.556 56.9446L101.75 55.5L99.9442 54.0554L81.4442 77.1804L83.25 78.625ZM101.75 55.5L103.556 54.0554L85.0558 30.9304L83.25 32.375L81.4442 33.8196L99.9442 56.9446L101.75 55.5ZM101.75 55.5L101.75 53.1875L60.125 53.1875L60.125 55.5L60.125 57.8125L101.75 57.8125L101.75 55.5Z" fill="#222222"/>
</svg>
