<svg width="100" height="100" viewBox="0 0 100 100" fill="none" xmlns="http://www.w3.org/2000/svg">
<path d="M22.0104 22.0103C15.5348 28.4859 11.5049 37.0064 10.6073 46.1201C9.70965 55.2339 11.9998 64.3769 17.0877 71.9913C22.1755 79.6058 29.7461 85.2205 38.5096 87.8789C47.273 90.5373 56.6872 90.0748 65.1479 86.5702C73.6086 83.0657 80.5924 76.7359 84.9094 68.6595C89.2263 60.583 90.6094 51.2595 88.8228 42.2777C87.0362 33.2958 82.1905 25.2113 75.1114 19.4017C68.0323 13.592 59.1578 10.4167 50 10.4167" stroke="#222222" stroke-width="4.16667" stroke-linecap="round"/>
<path d="M50.0003 50.0001L29.167 29.1667" stroke="#222222" stroke-width="4.16667" stroke-linecap="round"/>
<path d="M50 10.4167V20.8334" stroke="#222222" stroke-width="4.16667" stroke-linecap="round"/>
<path d="M87.5 50L79.1667 50" stroke="#222222" stroke-width="4.16667" stroke-linecap="round"/>
<path d="M50 79.1667V87.5001" stroke="#222222" stroke-width="4.16667" stroke-linecap="round"/>
<path d="M20.833 50L12.4997 50" stroke="#222222" stroke-width="4.16667" stroke-linecap="round"/>
</svg>
