<svg width="51" height="36" viewBox="0 0 51 36" fill="none" xmlns="http://www.w3.org/2000/svg">
<path fill-rule="evenodd" clip-rule="evenodd" d="M22.6809 24.4885H28.972C28.9728 24.9842 29.0387 25.4636 29.1695 25.9266C28.8926 26.0409 28.6722 26.2602 28.5567 26.5366C28.4411 26.813 28.4398 27.1239 28.553 27.4013L28.6008 27.5195C28.7271 27.8283 28.971 28.0743 29.2786 28.2034C29.5863 28.3325 29.9327 28.334 30.2415 28.2078L30.3812 28.1499C30.8165 28.6557 31.34 29.1061 31.9326 29.4836C31.6042 30.0964 31.8281 30.8677 32.4409 31.1973C32.7349 31.3551 33.0795 31.3897 33.399 31.2934C33.7185 31.1972 33.9867 30.9779 34.1445 30.684L34.249 30.4902C35.0797 30.7073 35.9374 30.8035 36.7956 30.7758L36.8283 30.9457C36.8563 31.111 36.9171 31.2692 37.007 31.4107C37.097 31.5523 37.2144 31.6744 37.3523 31.77C37.4901 31.8655 37.6457 31.9325 37.8098 31.967C37.974 32.0016 38.1434 32.0029 38.308 31.9711C38.4727 31.9392 38.6294 31.8747 38.7688 31.7814C38.9081 31.6881 39.0275 31.5679 39.1197 31.4278C39.212 31.2877 39.2753 31.1306 39.306 30.9657C39.3366 30.8008 39.334 30.6314 39.2982 30.4675L39.2756 30.348C40.3714 29.9998 41.375 29.4099 42.2123 28.6217L42.6036 33.3136C42.2926 33.3662 42.0127 33.5337 41.8193 33.7829C41.626 34.032 41.5332 34.3447 41.5595 34.659C41.5858 34.9733 41.7291 35.2663 41.9612 35.4799C42.1932 35.6936 42.497 35.8122 42.8124 35.8125H46.5871V13.1645C46.5931 11.4564 46.0309 9.79474 44.9892 8.4411C45.7755 8.65248 46.3241 8.96074 46.7129 9.33443C47.4137 10.0076 47.8453 11.1412 47.8453 13.1645L48.3323 19.984C48.0353 20.4433 47.8453 21.163 47.8453 21.972C47.8453 23.3624 48.4077 24.4885 49.1035 24.4885C49.7993 24.4885 50.3618 23.3624 50.3618 21.972C50.3618 21.163 50.1705 20.4433 49.8748 19.984L50.3618 13.1645C50.3618 10.8569 49.8799 8.88651 48.4568 7.51882C47.0514 6.16874 44.9892 5.66042 42.4513 5.61764C42.3557 5.61513 39.7373 5.61513 39.6669 5.61513V5.62394C39.5504 5.6183 39.4337 5.61536 39.3171 5.61513H20.7935C18.3589 5.61513 16.5219 5.25276 14.9793 4.77463L14.788 4.51544C15.6311 4.30154 16.4803 3.95931 17.0906 3.50886C18.6873 2.33368 19.6158 -0.0305167 17.57 0.228677C16.9761 0.30417 16.5458 0.319269 16.196 0.331851C15.3417 0.36079 14.9629 0.374631 13.8305 1.20883C13.3688 1.54855 12.9636 1.91344 12.634 2.27455C10.8737 0.965996 8.52964 0.380922 4.43664 0.582238C4.26979 0.582238 4.10978 0.648519 3.9918 0.7665C3.87382 0.884481 3.80753 1.0445 3.80753 1.21135C3.80753 1.3782 3.87382 1.53822 3.9918 1.6562C4.10978 1.77418 4.26979 1.84046 4.43664 1.84046H6.62218C6.98077 2.07197 7.28904 2.28839 7.56207 2.49474L3.0526 8.13157H2.78586C2.39348 8.13149 2.00652 8.22316 1.65589 8.39926C1.30525 8.57536 1.00065 8.83102 0.766425 9.14581C0.532195 9.4606 0.374822 9.82581 0.306876 10.2123C0.238931 10.5987 0.262295 10.9957 0.375103 11.3715L0.75257 12.6297C0.908168 13.1481 1.22674 13.6025 1.66101 13.9254C2.09528 14.2484 2.62211 14.4228 3.16332 14.4227H7.39221C7.92439 14.4227 8.44287 14.5914 8.87314 14.9046L11.6286 16.9077C11.7125 16.9681 11.7977 17.0226 11.8841 17.0712C13.8557 22.1545 15.9355 26.1128 18.2633 28.1046L18.6973 33.3136C18.3864 33.3662 18.1065 33.5337 17.9131 33.7829C17.7197 34.032 17.627 34.3447 17.6533 34.659C17.6796 34.9733 17.8229 35.2663 18.055 35.4799C18.287 35.6936 18.5908 35.8122 18.9062 35.8125H22.6809V24.4885ZM35.024 24.4885H31.4884C31.4884 26.1619 33.2927 28.2631 36.5213 28.2631C37.7179 28.2631 38.7194 27.9737 39.5058 27.5258C37.7066 26.8086 36.3112 25.7417 35.0253 24.4885" fill="white"/>
</svg>
