<svg width="24" height="26" viewBox="0 0 24 26" fill="none" xmlns="http://www.w3.org/2000/svg">
<path d="M22.7921 6.49854C22.8718 6.48316 22.9682 6.47338 23.0423 6.4622C23.1398 6.46024 23.2362 6.48385 23.3218 6.53068C23.3362 6.53866 23.3526 6.54229 23.369 6.54114C23.3854 6.53999 23.4012 6.53411 23.4143 6.52421C23.4275 6.5143 23.4375 6.5008 23.4432 6.48533C23.4488 6.46987 23.4498 6.45309 23.4462 6.43704C23.4182 6.349 23.3777 6.24418 23.3553 6.17151C23.3451 6.13971 23.3268 6.11108 23.3024 6.08832C23.2779 6.06557 23.248 6.04946 23.2156 6.04153C23.1772 6.03316 23.1438 6.00992 23.1225 5.97691C23.1013 5.94389 23.0941 5.9038 23.1024 5.86544C23.1149 5.81107 23.1382 5.75976 23.1708 5.7145C23.2686 5.58967 23.3371 5.44455 23.3715 5.28978C23.4058 5.135 23.4051 4.97451 23.3693 4.82006C23.3199 4.67043 23.2214 4.54189 23.0898 4.45529C23.0765 4.44735 23.0651 4.43663 23.0563 4.42387C23.0475 4.41111 23.0416 4.3966 23.0389 4.38134C23.0363 4.36608 23.037 4.35043 23.0409 4.33546C23.0449 4.32048 23.052 4.30654 23.0618 4.29457C23.1003 4.24168 23.1218 4.17829 23.1233 4.11289C23.1186 3.9722 23.0902 3.83331 23.0395 3.702C23.0262 3.6243 23.0262 3.54491 23.0395 3.46721C23.0618 3.3582 22.9193 3.29112 22.9193 3.29112C22.9193 3.29112 23.0269 3.17652 22.9193 2.94731C22.8117 2.71811 22.0807 2.64684 22.0807 2.64684C22.0807 2.64684 22.1884 2.17865 21.5986 1.94805C21.122 1.76637 20.7419 2.50708 20.6119 2.81035C20.5947 2.84646 20.5655 2.87552 20.5294 2.89258C20.4932 2.90965 20.4522 2.91368 20.4134 2.90399C20.3935 2.90172 20.3745 2.89413 20.3585 2.88201C20.3425 2.86989 20.3301 2.85369 20.3225 2.83511C20.315 2.81653 20.3125 2.79625 20.3155 2.7764C20.3184 2.75655 20.3267 2.73787 20.3394 2.72231L20.7307 2.30303C20.7476 2.28436 20.7598 2.26188 20.7661 2.2375C20.7725 2.21313 20.7729 2.18757 20.7672 2.16302C20.7616 2.13846 20.7501 2.11562 20.7338 2.09645C20.7175 2.07727 20.6967 2.06232 20.6734 2.05287L20.6287 2.03191L20.651 2.02212C20.7337 1.99356 20.8016 1.93335 20.8398 1.85473C20.8781 1.77611 20.8836 1.68551 20.8551 1.60285V1.60145C20.8388 1.55523 20.8126 1.51313 20.7783 1.47812C20.744 1.44311 20.7025 1.41604 20.6566 1.39881L20.5756 1.36666C20.4924 1.33279 20.424 1.27035 20.3827 1.19057L20.3212 1.06619C20.285 0.999848 20.2304 0.945411 20.1639 0.909451C20.0974 0.87349 20.022 0.857543 19.9467 0.863538C19.4761 0.905052 19.0345 1.10856 18.6972 1.43934C17.9831 2.0948 17.4827 4.9654 17.3975 5.53142C17.3871 5.59738 17.358 5.65898 17.3136 5.70891C17.2391 5.79836 17.1142 5.94044 16.9391 6.13517C16.2883 6.82125 15.4632 7.3174 14.552 7.57047C13.4854 7.69774 12.4118 7.75656 11.3376 7.74657C10.2192 7.7553 9.10831 7.5636 8.05753 7.18055C7.30563 6.74172 6.66415 4.46088 5.80744 3.61395C5.19304 3.05174 4.44167 2.66087 3.62863 2.48053C3.47183 2.44878 3.31104 2.44171 3.15206 2.45956C3.13253 2.46228 3.11263 2.4595 3.09459 2.45155C3.07655 2.4436 3.06108 2.43078 3.04991 2.41453C3.03874 2.39829 3.03231 2.37925 3.03135 2.35956C3.03038 2.33987 3.03492 2.3203 3.04444 2.30303C3.08343 2.2415 3.11754 2.17702 3.14647 2.11017C3.15765 2.04309 3.05003 1.87678 3.05003 1.87678L2.85717 1.72025L2.77751 1.61124L2.56088 1.54415L2.52175 1.5176C2.5093 1.51113 2.49563 1.50733 2.48163 1.50645C2.46762 1.50558 2.45359 1.50764 2.44043 1.51251C2.42726 1.51738 2.41527 1.52495 2.4052 1.53473C2.39514 1.54451 2.38724 1.55629 2.382 1.56931L2.31911 1.75239C2.31911 1.75239 2.17935 1.47288 2.08571 1.5176C1.93338 1.59586 2.08571 2.00675 2.08571 2.00675C2.08571 2.00675 1.8062 1.53856 1.64967 1.61124C1.37016 1.73702 1.70557 2.33937 1.70557 2.33937C1.70557 2.33937 1.49594 1.97041 1.34919 2.02771C1.27512 2.05287 1.34919 2.51686 1.34919 2.51686C1.34919 2.51686 1.19686 2.46376 1.13956 2.49031C1.08226 2.51686 1.20245 2.88023 1.20245 2.88023H1.02356C1.00029 2.87963 0.977412 2.88632 0.95812 2.89934C0.938829 2.91237 0.924085 2.9311 0.915945 2.9529L0.893584 3.01579L0.791562 3.09825C0.751188 3.13152 0.72044 3.17498 0.702502 3.22412C0.684565 3.27327 0.680089 3.32631 0.689539 3.37777L0.7119 3.49796L0.682551 3.62234L0.695129 3.7621C0.533443 3.88111 0.386585 4.01906 0.25769 4.17298C0.142069 4.36543 0.0847814 4.5873 0.0927771 4.81167C0.15943 4.73445 0.245941 4.67693 0.342942 4.64536L0.609878 4.5056C0.774032 4.42191 0.959492 4.38929 1.14235 4.41197H1.47777C1.40707 4.57251 1.36 4.74245 1.33801 4.91649C1.33803 5.03306 1.36345 5.14823 1.41251 5.25398C1.46157 5.35972 1.53308 5.45351 1.62208 5.5288C1.71107 5.60409 1.81541 5.65908 1.92782 5.68995C2.04023 5.72081 2.15802 5.72681 2.27299 5.70751C2.38493 5.69226 2.49202 5.65207 2.58635 5.5899C2.68069 5.52774 2.75986 5.44519 2.81804 5.34834C2.35252 6.31566 2.04939 7.35302 1.9208 8.4188C1.73918 10.0724 2.2 11.7325 3.20796 13.0559C4.83194 15.1271 7.27209 15.6456 7.85767 16.0663C8.44326 16.487 9.21891 17.3563 9.76396 17.6469C10.2461 17.9069 10.9449 18.6658 11.7108 19.2542C11.988 19.4857 12.2887 19.6876 12.608 19.8565C12.3873 20.8444 12.0777 21.8104 11.6828 22.7425C11.6473 22.8157 11.5899 22.8761 11.5185 22.9152C11.4471 22.9543 11.3653 22.9701 11.2845 22.9605C10.8962 22.9231 10.5058 22.9128 10.1161 22.9298C9.85594 22.9762 9.60247 23.0546 9.36146 23.1632C9.30416 23.1841 9.32792 23.2568 9.38382 23.2568C9.65076 23.2568 10.0588 23.2568 10.2126 23.2722C10.2126 23.2722 10.5186 23.3658 10.5242 23.3658C10.4795 23.3658 10.105 23.377 10.0421 23.3826C9.46812 23.419 8.8985 23.506 8.33984 23.6425C8.32888 23.6462 8.31952 23.6535 8.31331 23.6632C8.3071 23.6729 8.30443 23.6845 8.30574 23.696C8.30705 23.7074 8.31226 23.7181 8.32051 23.7262C8.32875 23.7343 8.33952 23.7393 8.35102 23.7404C8.63053 23.7669 9.16859 23.8186 9.40618 23.855C9.76396 23.9123 9.9121 24.0842 10.2866 24.1512C10.151 24.2423 10.0062 24.3191 9.8548 24.3804C9.67312 24.4224 9.41876 24.8486 9.26503 25.1295C9.24266 25.1701 9.29298 25.2176 9.34469 25.1966C9.66194 25.0303 10.3663 24.6558 10.4516 24.625C11.0203 24.3803 11.6161 24.2039 12.2265 24.0995C12.267 24.0897 12.3355 24.073 12.4487 23.8969C12.7548 23.9388 13.0958 23.9961 13.3739 24.0478C13.2387 24.1393 13.0939 24.2157 12.942 24.2756C12.7603 24.3175 12.5228 24.7284 12.3578 25.0149C12.3533 25.0257 12.3523 25.0376 12.355 25.0489C12.3578 25.0602 12.364 25.0704 12.3729 25.0779C12.3818 25.0854 12.3929 25.0898 12.4045 25.0906C12.4162 25.0913 12.4277 25.0883 12.4375 25.082C12.717 24.9213 13.2369 24.6138 13.4647 24.495C14.0616 24.2704 14.679 24.1047 15.3081 24.0003C15.3542 23.9905 15.4395 23.964 15.5876 23.6984C15.6403 23.6068 15.7257 23.5384 15.8266 23.507C16.0182 23.4325 16.2181 23.3818 16.422 23.356C16.5478 23.4958 16.9559 23.4958 17.1375 23.486H17.2563C17.2631 23.4862 17.2697 23.4845 17.2755 23.481C17.2813 23.4775 17.2859 23.4724 17.2889 23.4664C17.2918 23.4603 17.2929 23.4536 17.2921 23.4469C17.2913 23.4402 17.2886 23.4339 17.2843 23.4287L17.206 23.3462C17.206 23.3351 17.0062 23.1324 16.8594 22.9927C16.5724 22.8803 16.2641 22.8325 15.9566 22.8529C16.088 22.4993 16.2459 22.0465 16.422 21.4386C16.5869 20.9187 16.735 20.3932 16.8538 19.9362C17.5105 19.6168 18.0229 19.062 18.2891 18.3821C18.7481 18.0564 19.1357 17.6406 19.4284 17.16C19.7211 16.6794 19.9127 16.1441 19.9914 15.5869C19.8848 14.4392 19.6117 13.313 19.1808 12.2439C19.7982 12.1601 20.3966 11.971 20.9501 11.6849C21.625 11.0583 22.0455 10.205 22.1311 9.28809C22.1851 8.80837 22.2079 8.32567 22.1995 7.843C22.2049 7.79112 22.2233 7.74145 22.2532 7.69866C22.283 7.65588 22.3232 7.62138 22.37 7.59843C22.4426 7.56721 22.5111 7.52732 22.5741 7.47963C22.8066 7.39669 23.0468 7.33677 23.291 7.30074C23.3068 7.29952 23.3219 7.29434 23.3351 7.28568C23.3483 7.27703 23.3591 7.26518 23.3665 7.25124C23.3739 7.23729 23.3776 7.22171 23.3774 7.20593C23.3772 7.19015 23.3729 7.17469 23.3651 7.16099C23.2849 7.05041 23.1872 6.95364 23.0758 6.87448L22.746 6.65646C22.7324 6.64534 22.7225 6.63048 22.7173 6.61374C22.7121 6.59699 22.712 6.57909 22.7169 6.56227C22.7218 6.54545 22.7316 6.53044 22.7449 6.51911C22.7583 6.50778 22.7747 6.50063 22.7921 6.49854ZM14.8455 22.7313C14.7896 22.8571 14.566 22.8571 14.4151 22.8459C14.0156 22.8011 13.613 22.7908 13.2118 22.8152C13.0555 22.8288 12.9001 22.8512 12.7464 22.8822C12.8708 22.5398 13.5639 20.2884 13.6995 19.7782C14.0713 19.6004 14.4247 19.3865 14.7547 19.1396C15.153 18.7706 15.1865 18.5875 15.1865 18.5875C15.2649 19.0205 15.487 19.4144 15.8168 19.7056C15.5849 20.7414 15.2598 21.7541 14.8455 22.7313Z" fill="white"/>
</svg>
