<svg width="45" height="28" viewBox="0 0 45 28" fill="none" xmlns="http://www.w3.org/2000/svg">
<path d="M26.2982 22.7227L26.042 27.8332H28.5313L30.3774 22.5766L26.2982 22.7227ZM12.0151 22.754L12.0473 23.1696L10.3255 27.8332H8.00696L8.5439 22.4723C9.69412 22.6313 10.8524 22.7253 12.0132 22.754H12.0151ZM8.9044 7.18834C8.48969 7.18304 8.07593 7.14753 7.66639 7.08209C2.80922 6.35921 4.20471 2.3805 4.20471 2.3805C4.20471 2.3805 8.03352 3.2343 9.21651 4.60228C9.21461 4.60228 11.8842 7.18834 8.9025 7.18834H8.9044ZM1.13957 4.78537C1.13957 4.78537 1.78561 4.78537 2.64984 4.86316C2.85297 5.69306 3.29026 6.44712 3.90967 7.03561C3.6443 7.46461 3.40849 7.9112 3.20387 8.37227C0.808485 7.47768 1.13672 4.78537 1.13672 4.78537H1.13957ZM0.0201438 14.2891V18.2251C0.0201438 18.2251 5.0623 21.2514 12.7797 21.2514C12.9875 21.2514 13.2009 21.2371 13.4125 21.2324L13.9323 27.8332H15.7348L18.0543 21.4904L33.4786 20.9336L34.3704 27.8332H36.5172C36.5172 27.8332 41.085 18.1967 38.7162 10.5618C39.2427 10.1975 39.7958 9.78674 40.3033 9.35699C40.79 9.60839 41.2767 9.74689 41.7263 9.72223C43.2214 9.64159 44.4177 8.51457 44.5515 8.38556L43.4927 7.29839C43.2461 7.53555 42.4293 8.16452 41.6447 8.20626C41.5908 8.20853 41.5367 8.20503 41.4835 8.19582C41.6459 8.00403 41.7915 7.79869 41.9189 7.58204C42.4549 6.6495 42.583 5.65435 42.2832 4.85083C42.1534 4.51713 41.9501 4.217 41.6882 3.97276C41.4264 3.72853 41.1129 3.54648 40.771 3.44016C39.7 3.07872 38.2239 3.12236 37.4744 3.90501C37.1955 4.19625 36.7876 4.8385 37.1898 5.86875C37.5304 6.75006 38.2191 7.70347 39.0264 8.44153C38.7542 8.65972 38.4629 8.87886 38.1641 9.09326C37.2666 7.11529 35.8076 5.33844 33.5612 3.99324C30.0114 1.85296 25.9427 0.727176 21.7977 0.738364C17.8107 0.749432 13.8861 1.73008 10.3625 3.59574C10.6297 3.86949 10.8761 4.16281 11.0996 4.47326C11.8206 5.48549 12.017 6.41708 11.683 7.24242C11.4127 7.90648 10.7126 8.70526 8.90914 8.70526C8.41947 8.70014 7.93085 8.65892 7.44724 8.58193C6.65742 8.47508 5.88919 8.24526 5.17045 7.90079C3.6763 10.3408 3.53684 13.4666 2.51418 13.6876C1.30084 13.9457 0.0201438 14.2891 0.0201438 14.2891ZM38.6014 5.32232C38.5606 5.21606 38.5018 5.02728 38.5711 4.95518C38.6963 4.82427 39.0274 4.74078 39.4173 4.74078C39.7123 4.73913 40.0056 4.78461 40.2863 4.87549C40.5832 4.9751 40.772 5.14207 40.864 5.38588C41.0025 5.7606 40.9076 6.29849 40.6031 6.8269C40.4736 7.04043 40.3212 7.23924 40.1487 7.41982C39.5169 6.86769 38.8974 6.08789 38.6014 5.32232ZM7.18731 13.0587C7.18731 12.8889 7.23766 12.7229 7.332 12.5817C7.42634 12.4405 7.56042 12.3305 7.7173 12.2655C7.87418 12.2005 8.0468 12.1835 8.21335 12.2166C8.37989 12.2498 8.53286 12.3315 8.65293 12.4516C8.773 12.5717 8.85477 12.7246 8.8879 12.8912C8.92103 13.0577 8.90402 13.2304 8.83904 13.3872C8.77406 13.5441 8.66402 13.6782 8.52283 13.7725C8.38165 13.8669 8.21566 13.9172 8.04585 13.9172C7.81815 13.9172 7.59978 13.8268 7.43877 13.6658C7.27777 13.5048 7.18731 13.2864 7.18731 13.0587Z" fill="white"/>
</svg>
